<?xml version="1.0" encoding="iso-8859-1"?>
<!-- Generator: Adobe Illustrator 19.0.0, SVG Export Plug-In . SVG Version: 6.00 Build 0)  -->
<svg version="1.1" id="Capa_1" xmlns="http://www.w3.org/2000/svg" xmlns:xlink="http://www.w3.org/1999/xlink" x="0px" y="0px"
	 viewBox="0 0 60.001 60.001" style="enable-background:new 0 0 60.001 60.001;" xml:space="preserve">
<line style="fill:none;stroke:#000000;stroke-width:2;stroke-linecap:round;stroke-linejoin:round;stroke-miterlimit:10;" x1="51.001" y1="3.001" x2="51.001" y2="1.001"/>
<g>
	<path d="M59.978,28.692c-0.113-1.063-0.633-2.017-1.498-2.714l-5.479-4.055v-9.923h-8v4.003L30.06,4.947L1.562,25.001
		c-0.847,0.651-1.39,1.594-1.528,2.653c-0.138,1.06,0.145,2.109,0.796,2.956c0.764,0.992,1.92,1.562,3.173,1.562
		c0.889,0,1.731-0.287,2.396-0.8l0.602-0.417v2.397c-1.178,0.564-2,1.758-2,3.149s0.822,2.585,2,3.149v3.702
		c-1.178,0.564-2,1.758-2,3.149s0.822,2.585,2,3.149v3.702c-1.178,0.564-2,1.758-2,3.149c0,1.93,1.57,3.5,3.5,3.5h14.5h2h10h2h14.5
		c1.93,0,3.5-1.57,3.5-3.5c0-1.758-1.308-3.204-3-3.449V49.95c1.692-0.245,3-1.691,3-3.449s-1.308-3.204-3-3.449V39.95
		c1.692-0.245,3-1.691,3-3.449s-1.308-3.204-3-3.449v-1.907l1.486,1.084c0.709,0.572,1.601,0.888,2.511,0.888
		c1.215,0,2.351-0.542,3.115-1.487C59.784,30.798,60.092,29.755,59.978,28.692z M23.001,50.001v3h-14v-3H23.001z M9.001,43.001v-3
		h14v3H9.001z M35.001,58.001h-10v-4v-1v-3v-1v-5v-1v-3h10v3v1v5v1v3v1V58.001z M37.001,43.001v-3h13v3H37.001z M37.001,53.001v-3
		h13v3H37.001z M34.001,33.001h-3v-3h3V33.001z M34.001,28.001h-3v-3h3V28.001z M29.001,28.001h-3v-3h3V28.001z M26.001,30.001h3v3
		h-3V30.001z M40.001,30.001h10v3h-14v-10h-12v10h-15v-3h11c0.553,0,1-0.447,1-1s-0.447-1-1-1h-8.74l4.327-3h5.413v-2h-2.528
		l4.327-3h13.929l4.111,3h-1.839v2h4.581l4.112,3h-7.692c-0.553,0-1,0.447-1,1S39.448,30.001,40.001,30.001z M25.684,18.001
		l4.258-2.952l4.046,2.952H25.684z"/>
	<circle cx="27.001" cy="49.001" r="1"/>
	<path d="M47.001,11.001c0.26,0,0.52-0.11,0.71-0.29c0.18-0.19,0.29-0.45,0.29-0.71s-0.11-0.521-0.29-0.71
		c-0.37-0.37-1.05-0.37-1.42,0c-0.181,0.189-0.29,0.45-0.29,0.71s0.109,0.52,0.29,0.71C46.48,10.89,46.741,11.001,47.001,11.001z"/>
	<path d="M51.001,11.001c0.553,0,1-0.447,1-1v-4c0-0.553-0.447-1-1-1s-1,0.447-1,1v4C50.001,10.553,50.448,11.001,51.001,11.001z"/>
	<path d="M47.001,8.001c0.553,0,1-0.447,1-1v-2c0-0.553-0.447-1-1-1s-1,0.447-1,1v2C46.001,7.553,46.448,8.001,47.001,8.001z"/>
</g>
<line style="fill:none;stroke:#000000;stroke-width:2;stroke-linecap:round;stroke-linejoin:round;stroke-miterlimit:10;" x1="47.001" y1="2.001" x2="47.001" y2="1.001"/>
<g>
</g>
<g>
</g>
<g>
</g>
<g>
</g>
<g>
</g>
<g>
</g>
<g>
</g>
<g>
</g>
<g>
</g>
<g>
</g>
<g>
</g>
<g>
</g>
<g>
</g>
<g>
</g>
<g>
</g>
</svg>
